<?xml version="1.0" encoding="UTF-8" standalone="no"?>
<!-- Created with Inkscape (http://www.inkscape.org/) -->

<svg
   xmlns:dc="http://purl.org/dc/elements/1.1/"
   xmlns:cc="http://creativecommons.org/ns#"
   xmlns:rdf="http://www.w3.org/1999/02/22-rdf-syntax-ns#"
   xmlns:svg="http://www.w3.org/2000/svg"
   xmlns="http://www.w3.org/2000/svg"
   xmlns:sodipodi="http://sodipodi.sourceforge.net/DTD/sodipodi-0.dtd"
   xmlns:inkscape="http://www.inkscape.org/namespaces/inkscape"
   width="200mm"
   height="200mm"
   viewBox="0 0 708.66142 708.66141"
   id="svg2"
   version="1.1"
   inkscape:version="0.91 r13725"
   sodipodi:docname="logo.svg">
  <defs
     id="defs4" />
  <sodipodi:namedview
     id="base"
     pagecolor="#ffffff"
     bordercolor="#666666"
     borderopacity="1.0"
     inkscape:pageopacity="0.0"
     inkscape:pageshadow="2"
     inkscape:zoom="1.2573"
     inkscape:cx="199.63414"
     inkscape:cy="354.33071"
     inkscape:document-units="px"
     inkscape:current-layer="layer1"
     showgrid="false"
     showguides="true"
     inkscape:guide-bbox="true"
     inkscape:window-width="1920"
     inkscape:window-height="1018"
     inkscape:window-x="-8"
     inkscape:window-y="-8"
     inkscape:window-maximized="1"
     fit-margin-top="0"
     fit-margin-left="0"
     fit-margin-right="0"
     fit-margin-bottom="0" />
  <metadata
     id="metadata7">
    <rdf:RDF>
      <cc:Work
         rdf:about="">
        <dc:format>image/svg+xml</dc:format>
        <dc:type
           rdf:resource="http://purl.org/dc/dcmitype/StillImage" />
        <dc:title></dc:title>
      </cc:Work>
    </rdf:RDF>
  </metadata>
  <g
     inkscape:label="Capa 1"
     inkscape:groupmode="layer"
     id="layer1"
     transform="translate(-30.489172,-107.13042)">
    <rect
       style="opacity:1;fill:#008ba3;fill-opacity:1;stroke:none;stroke-width:2;stroke-linejoin:miter;stroke-miterlimit:4;stroke-dasharray:none;stroke-dashoffset:0;stroke-opacity:1"
       id="rect4414-3-2-2-82"
       width="708.66144"
       height="708.66144"
       x="30.489172"
       y="107.13042"
       rx="1.3912998"
       ry="1.3468801" />
    <path
       style="fill:#ffffff;fill-opacity:1"
       d="m 353.65613,351.40896 c -0.365,-11.6011 -1.0495,-17.8122 -2.5986,-23.5785 -3.7604,-13.9977 -10.2643,-26.7241 -18.6277,-36.4496 -13.1553,-15.2977 -28.2101,-24.8207 -48.1886,-30.4819 -7.8092,-2.2128 -8.0705,-2.219 -105.5785,-2.5075 l -97.75,-0.2891 0,-45.4717 0,-45.4717 97.4697,0 c 113.606,0 111.472,-0.1458 142.0304,9.7039 52.3659,16.8789 95.5426,59.4077 113.9231,112.2137 7.369,21.1705 9.4637,33.2672 10.2742,59.3324 l 0.583,18.75001 -45.5207,0 -45.5207,0 z"
       id="path4191-7-5-6-7-8"
       inkscape:connector-curvature="0"
       sodipodi:nodetypes="ssssscccsssscccs" />
    <path
       style="fill:#ffffff;fill-opacity:1"
       d="m 388.47963,579.76116 c -4.6476,-0.5303 -7.2474,-1.1063 -12.2776,-2.7208 -23.5133,-7.5468 -41.3261,-29.79169 -45.207,-56.45509 -0.8158,-5.605 -0.8196,-16.5643 -0.01,-22.2779 4.0245,-28.3186 23.2999,-61.8356 57.9703,-100.8017 3.0862,-3.4685 5.7412,-6.3065 5.8999,-6.3065 0.2847,0 6.4445,6.7839 11.6405,12.8198 31.6435,36.759 49.4053,69.4843 52.4956,96.7206 0.7116,6.2715 0.3036,17.7291 -0.833,23.3913 -3.0065,14.9781 -10.5176,28.8052 -21.1661,38.9647 -5.6535,5.39379 -15.434,11.23729 -23.1169,13.81129 -7.7029,2.5807 -17.8249,3.7182 -25.3981,2.8543 z m 28.1215,-24.98799 c 2.1113,-0.8822 5.8001,-3.8428 8.9555,-7.1877 7.4943,-7.9444 12.6264,-18.5293 14.0114,-28.8987 0.5963,-4.4638 0.2526,-11.1664 -0.6725,-13.1159 -1.4375,-3.0292 -5.9151,-3.5836 -8.2091,-1.0164 -1.182,1.3227 -1.1916,1.3751 -0.9601,5.2553 0.7404,12.4076 -5.7382,26.8066 -15.5942,34.659 -3.5696,2.844 -4.0087,3.4415 -4.0371,5.4928 -0.03,2.1256 1.1363,4.0085 2.948,4.7615 1.8552,0.7711 1.8332,0.7708 3.5581,0.05 z"
       id="path4340-0-0-2-9"
       inkscape:connector-curvature="0" />
    <path
       style="fill:#ffffff;fill-opacity:1"
       d="m 263.05853,755.64343 c -12.9908,-2.1922 -24.6389,-7.1088 -41.3309,-17.4459 -17.2629,-10.6906 -20.9296,-12.0432 -37.8116,-13.9481 -10.5987,-1.196 -12.1904,-1.6389 -15.5,-4.3138 -5.2614,-4.2524 -7.454,-8.5082 -7.5426,-14.6401 -0.09,-6.2045 2.1238,-10.5207 7.704,-15.0229 l 3.8498,-3.106 13.1502,0.1329 c 20.2031,0.2043 31.7527,4.1312 56.5193,19.217 7.4164,4.5174 16.2037,9.0188 19.7354,10.1096 13.0287,4.0242 32.4713,3.6031 44.6879,-0.9677 3.0236,-1.1313 10.6073,-5.2632 16.8526,-9.1821 13.9237,-8.7371 22.6272,-12.9052 34.3551,-16.4525 8.471,-2.5622 10.1462,-2.7222 28.5,-2.7222 18.3184,0 20.0322,0.1628 28.2841,2.688 11.9709,3.6632 18.9109,6.9796 34.5849,16.5269 15.4858,9.4326 22.5369,11.9265 35.9941,12.7308 17.9633,1.0736 28.5833,-2.0904 47.5903,-14.1783 11.4959,-7.3112 20.7972,-11.6589 32.0466,-14.9797 7.565,-2.2332 11.0967,-2.678 22.1502,-2.7898 l 13.1502,-0.1329 3.8498,3.106 c 5.5208,4.4542 7.6355,8.5792 7.6355,14.894 0,6.2628 -2.1112,10.4346 -7.4741,14.769 -3.3231,2.6858 -4.8648,3.11 -15.5692,4.2837 -15.3813,1.6865 -20.7405,3.6675 -37.7174,13.9423 -25.7955,15.612 -38.2275,19.0692 -65.525,18.2217 -23.5955,-0.7325 -32.4241,-3.562 -56.3246,-18.0516 -19.6254,-11.8979 -25.6788,-13.9033 -42.1754,-13.9722 -17.4609,-0.073 -23.5192,1.9525 -45.2247,15.1197 -22.4514,13.6197 -35.2144,17.2729 -59.6358,17.0698 -7.7767,-0.065 -16.2406,-0.4722 -18.8087,-0.9056 z m 1.7081,-75.0218 c -14.2632,-2.2392 -23.9572,-6.2025 -42.7558,-17.4808 -7.7302,-4.63771 -16.4522,-9.32911 -19.3824,-10.42551 -6.0081,-2.2479 -15.7898,-4.0299 -22.1829,-4.0412 -4.9737,-0.01 -10.6874,-2.1664 -14.0492,-5.3052 -9.0733,-8.4717 -6.721,-24.3519 4.4049,-29.7379 4.2169,-2.0414 5.6188,-2.1836 16.7641,-1.7 19.0466,0.8262 35.0663,6.6487 56.4801,20.528 13.7609,8.919 22.5051,11.524 38.6823,11.524 16.6471,0 25.4138,-2.8308 42.0025,-13.5628 10.4141,-6.7374 21.995,-12.306 32.0486,-15.4103 8.5392,-2.6367 9.8873,-2.7632 29.4489,-2.7632 19.4836,0 20.9361,0.1348 29.2966,2.7191 10.5188,3.2514 17.1503,6.4951 33.5475,16.4095 6.7892,4.1051 14.8443,8.324 17.9002,9.3753 13.2598,4.5621 33.3205,4.4827 45.7857,-0.1811 2.9795,-1.1148 10.2667,-4.9785 16.1936,-8.5861 24.6607,-15.0101 36.3571,-19.2029 55.9387,-20.0524 11.1453,-0.4836 12.5472,-0.3414 16.7642,1.7 11.5496,5.5911 13.5178,22.0146 3.6348,30.3305 -3.8987,3.2806 -7.7287,4.3922 -17.6685,5.1279 -13.784,1.0204 -20.2127,3.5333 -40.0833,15.66791 -12.8946,7.8745 -19.72,10.9323 -31.4386,14.0847 -7.2234,1.9431 -10.8385,2.2514 -26.3709,2.2487 -26.1051,-0.01 -35.7328,-2.843 -60.6699,-17.8872 -7.7259,-4.66091 -16.4836,-9.38601 -19.4613,-10.50011 -7.9403,-2.9709 -18.6926,-4.3677 -28.3688,-3.6855 -14.185,1.0002 -20.6496,3.5007 -40.6905,15.73941 -20.6897,12.6349 -31.4648,15.8955 -54.3095,16.4344 -8.525,0.2012 -18.1825,-0.055 -21.4611,-0.5701 z"
       id="path4237"
       inkscape:connector-curvature="0"
       sodipodi:nodetypes="cssscccsscsssssssssscssssssssscccscccscssssssscscssccsscsssscc" />
  </g>
</svg>
